<svg width="29" height="24" viewBox="0 0 29 24" fill="none" xmlns="http://www.w3.org/2000/svg">
<path fill-rule="evenodd" clip-rule="evenodd" d="M3.7407 3.1242C3.7407 6.24464 3.74053 6.2485 3.6197 6.35497C3.55317 6.41359 2.82269 7.17902 1.99653 8.05594C1.17031 8.93287 0.383101 9.76531 0.247153 9.90585L0 10.1613L1.7406 11.2124L3.4812 12.2633L3.97749 12.023C4.25046 11.8908 4.48244 11.7938 4.49297 11.8074C4.5035 11.821 4.66759 12.1469 4.85756 12.5315C5.04747 12.9161 5.30487 13.3856 5.42955 13.5749L5.65615 13.919L4.86684 15.8127C4.43267 16.8542 4.0644 17.7566 4.04838 17.8182C4.02098 17.9235 4.13563 17.9522 5.98914 18.3053L7.959 18.6806L8.65131 17.9748L9.34362 17.2691L9.95361 17.5517C10.2891 17.7071 10.7315 17.892 10.9367 17.9627L11.3097 18.0912L11.2832 18.6342C11.2452 19.4152 11.4343 19.9874 12.0728 21.0229C12.5769 21.8403 14.3367 24 14.4988 24C14.5885 24 15.5574 22.8912 16.1365 22.1259C17.3716 20.4935 17.746 19.6808 17.7183 18.6918L17.7037 18.1669L18.1662 18.0118C18.4207 17.9265 18.878 17.7463 19.1826 17.6113L19.7363 17.3659L20.3874 18.0227L21.0386 18.6796L22.7655 18.3469C23.7153 18.1639 24.6008 17.9981 24.7331 17.9785C24.8654 17.9589 24.9738 17.9208 24.9738 17.8939C24.9738 17.867 24.6292 17.0162 24.2081 16.0032L23.4425 14.1614L23.7509 13.694C23.9205 13.4369 24.2018 12.9396 24.3759 12.589C24.5502 12.2383 24.7054 11.9388 24.721 11.9234C24.7366 11.908 24.9221 11.978 25.1333 12.0789L25.5172 12.2625L27.2586 11.2131L29 10.1639L28.7517 9.90708C28.615 9.76587 27.8237 8.92845 26.9933 8.0461L25.4834 6.4419V3.22092V0H24.634H23.7847V2.82517V5.65035H23.4149C21.8574 5.65035 20.5748 7.18512 20.8344 8.73813C20.9909 9.67452 21.4417 10.2319 22.4744 10.7664C22.828 10.9494 23.1294 11.1301 23.1441 11.1678C23.167 11.2267 22.7541 12.1363 22.6053 12.355C22.5651 12.414 22.4946 12.3851 22.2776 12.2205C21.1018 11.3287 19.5413 11.4313 18.563 12.4647C18.0627 12.9932 17.8246 13.5919 17.8246 14.3217C17.8246 14.8892 17.9543 15.2985 18.2677 15.719C18.4102 15.9103 18.5186 16.0743 18.5087 16.0835C18.4569 16.1311 17.752 16.3979 17.3389 16.5261L16.8668 16.6727L16.5806 16.4185C16.2521 16.1267 15.6264 15.815 15.1896 15.7257C14.8057 15.6472 14.1918 15.6472 13.8079 15.7257C13.3878 15.8116 12.7598 16.1183 12.4472 16.3902L12.1829 16.62L11.761 16.4801C11.529 16.4031 11.1591 16.2606 10.939 16.1634L10.5388 15.9866L10.7654 15.674C11.053 15.277 11.1698 14.8792 11.1681 14.3021C11.1636 12.7887 9.97591 11.6217 8.44028 11.6217C7.90079 11.6217 7.49918 11.7361 7.00589 12.0303C6.79305 12.1572 6.61135 12.2527 6.60201 12.2424C6.569 12.2061 6.18726 11.4376 6.10233 11.2364L6.01615 11.0323L6.58298 10.7329C7.25027 10.3806 7.5135 10.1711 7.75375 9.80106C8.5777 8.53248 8.20015 6.85897 6.90471 6.03765C6.56622 5.82305 6.02419 5.65035 5.6891 5.65035H5.43934V2.82517V0H4.59002H3.7407V3.1242Z" fill="white"/>
</svg>
