<svg width="19" height="24" viewBox="0 0 19 24" fill="none" xmlns="http://www.w3.org/2000/svg">
<path fill-rule="evenodd" clip-rule="evenodd" d="M8.64557 0.0721067C7.6522 0.255171 6.75993 0.743308 6.06141 1.48577C5.1881 2.41404 4.73879 3.57563 4.73879 4.90508V5.39857H2.798H0.857264L0.828016 5.76109C0.811964 5.96051 0.633174 9.91516 0.430749 14.5493C0.228325 19.1834 0.0485997 23.2056 0.0313658 23.4875L0 24H9.49997H19L18.9829 23.7125C18.9735 23.5543 18.7899 19.5997 18.5749 14.9243C18.3599 10.2489 18.1696 6.19298 18.1521 5.91111L18.1202 5.39857H16.1634H14.2066L14.1793 4.71101C14.138 3.66768 13.9108 2.93073 13.3817 2.12326C12.3661 0.573195 10.444 -0.259269 8.64557 0.0721067ZM10.1305 1.67323C11.0227 1.86284 11.8511 2.51374 12.2625 3.34841C12.5135 3.85785 12.6151 4.31363 12.6163 4.93603L12.6171 5.39857H9.4658H6.31446L6.31529 4.93603C6.31712 3.94926 6.61359 3.1886 7.24701 2.5453C8.01456 1.76589 9.06765 1.44741 10.1305 1.67323Z" fill="white"/>
</svg>
