<svg width="24" height="24" viewBox="0 0 24 24" fill="none" xmlns="http://www.w3.org/2000/svg">
<path fill-rule="evenodd" clip-rule="evenodd" d="M5.54637 0.052539C4.96956 0.241735 4.53347 0.616641 4.28413 1.13766C4.1393 1.44033 4.12795 1.50099 4.12795 1.97335C4.12795 2.44896 4.13837 2.50361 4.2851 2.79869C4.72085 3.67476 5.6753 4.12838 6.58084 3.88971C7.59349 3.62281 8.25335 2.6291 8.07047 1.64657C7.94746 0.985737 7.44084 0.352745 6.85645 0.129708C6.50806 -0.00328051 5.83695 -0.0427851 5.54637 0.052539ZM5.66865 5.59436C5.66865 6.38949 5.69369 6.52829 5.86004 6.65469C5.99376 6.75631 6.24814 6.72852 6.38006 6.5979C6.49828 6.48094 6.50013 6.46627 6.50008 5.64176L6.49999 4.80446H6.08429H5.6686L5.66865 5.59436ZM2.6732 6.13421C1.41393 6.36146 0.402897 7.28362 0.0914321 8.48909C-0.151851 9.43071 0.0979372 10.6614 0.750458 11.736C1.47659 12.9318 2.711 14.2123 4.20132 15.3155C4.70765 15.6903 5.57097 16.2678 5.90098 16.4524L6.10885 16.5687L6.31672 16.4526C7.00416 16.0689 8.21549 15.2075 8.95473 14.5767C10.6452 13.1341 11.6986 11.6866 12.058 10.3127C12.2367 9.62959 12.2373 8.87876 12.0596 8.33756C11.6865 7.20122 10.7655 6.38953 9.585 6.15648C8.49912 5.94216 7.29225 6.38029 6.57482 7.24929C6.33682 7.53759 6.26463 7.58818 6.0908 7.58818C5.9715 7.58818 5.88136 7.52026 5.5988 7.21753C4.9502 6.52252 4.19628 6.15595 3.32772 6.1132C3.09535 6.10172 2.8008 6.11121 2.6732 6.13421ZM17.4562 7.46197C16.6429 7.64119 16.0336 8.26828 15.8805 9.08354C15.7243 9.91435 16.2036 10.8128 16.9996 11.1815C18.0239 11.656 19.1818 11.2398 19.6903 10.2145C19.8163 9.96039 19.8284 9.88985 19.8284 9.40365C19.8284 8.91744 19.8163 8.8469 19.6903 8.59283C19.3881 7.98347 18.8093 7.54683 18.1654 7.4426C17.8149 7.38586 17.7994 7.3863 17.4562 7.46197ZM17.4563 12.9983C17.4563 13.8525 17.5114 14.0588 17.7619 14.1448C17.9596 14.2127 18.15 14.1289 18.2509 13.9297C18.3215 13.7903 18.3364 13.6274 18.3365 12.9983L18.3366 12.2358H17.8964H17.4562L17.4563 12.9983ZM14.1401 13.6408C13.1091 13.9082 12.2729 14.6886 11.9017 15.7303C11.7755 16.0843 11.7277 16.6461 11.7828 17.1277C12.0185 19.187 13.9183 21.4691 17.1379 23.5606C17.51 23.8023 17.8361 24 17.8627 24C17.9363 24 19.2682 23.1187 19.8225 22.7031C22.8048 20.4676 24.3286 18.0265 23.9404 16.1065C23.809 15.4567 23.5381 14.9567 23.0627 14.4865C22.3804 13.8115 21.5893 13.5068 20.6416 13.5539C19.7813 13.5967 19.163 13.8882 18.4826 14.5717C18.1008 14.9552 18.0435 14.9953 17.8768 14.9953C17.7096 14.9953 17.6515 14.9542 17.2434 14.5475C16.7288 14.0345 16.3213 13.792 15.7171 13.6391C15.2305 13.5158 14.6193 13.5165 14.1401 13.6408Z" fill="white"/>
</svg>
