<svg width="39" height="24" viewBox="0 0 39 24" fill="none" xmlns="http://www.w3.org/2000/svg">
<path fill-rule="evenodd" clip-rule="evenodd" d="M12.9472 0.100768C12.0247 0.354066 11.8077 0.500873 9.02371 2.75557C7.22133 4.21536 4.16192 6.7338 3.99705 6.89341C3.92159 6.96646 4.36577 6.98388 5.73224 6.96132L7.56893 6.93094L7.99926 6.43888C8.23592 6.16817 9.03281 5.3178 9.77009 4.54912C11.113 3.14905 11.9645 2.45664 12.6569 2.20186C13.3648 1.94134 14.2849 2.09006 15.5511 2.66971C16.3619 3.04091 16.879 3.04439 17.2755 2.68138C17.6345 2.3525 17.6954 2.04748 17.4961 1.57415C17.3004 1.10908 16.6526 0.659522 15.6603 0.30008C14.8239 -0.00284986 13.6412 -0.0897498 12.9472 0.100768ZM23.7723 0.153361C22.6319 0.475186 21.6848 1.08122 21.4774 1.62186C21.2179 2.29825 21.5988 2.85692 22.3644 2.92318C22.7371 2.9554 22.9143 2.91448 23.4306 2.67676C24.2103 2.31785 25.0918 2.07195 25.599 2.07195C26.5374 2.07195 27.4435 2.68634 29.1884 4.50567C29.9025 5.25041 30.7004 6.10121 30.9615 6.39648L31.436 6.93337L33.2735 6.96246C34.2841 6.97848 35.1108 6.9851 35.1108 6.977C35.1108 6.95323 30.5826 3.23482 29.2255 2.14413C26.8493 0.234252 26.554 0.0790869 25.1768 0.016742C24.5647 -0.0109475 24.2443 0.0202249 23.7723 0.153361ZM3.52882 9.04248C2.66456 9.08271 1.82836 9.16012 1.6705 9.21445C1.1981 9.37711 0.848405 9.96964 0.359805 11.4354C-0.160934 12.9976 -0.146409 13.2321 0.601142 15.3376C0.853581 16.0486 1.19442 17.1262 1.35846 17.7321C1.52249 18.338 1.76133 19.0761 1.88913 19.3724C2.85231 21.6054 4.86097 23.1479 7.60458 23.7616C8.61033 23.9866 10.3085 24.0653 11.3703 23.936C13.2799 23.7036 14.4651 23.2283 15.3935 22.3225C16.6448 21.1014 17.2633 19.6255 17.6621 16.9082C17.9017 15.2758 18.1895 14.6615 18.8645 14.3418C19.7403 13.927 20.6162 14.365 21.0369 15.428C21.1106 15.614 21.2463 16.2802 21.3385 16.9082C21.5685 18.476 21.8602 19.5547 22.3181 20.5316C22.8307 21.6255 23.807 22.6786 24.7594 23.1652C25.9382 23.7674 27.7438 24.0754 29.5594 23.9842C32.689 23.8269 35.1371 22.5839 36.5297 20.4448C37.0169 19.6966 37.2926 19.0227 37.6466 17.7157C37.813 17.1007 38.1547 16.0232 38.4058 15.3211C39.1561 13.2232 39.1671 12.9994 38.6004 11.3303C38.1818 10.0969 37.8329 9.47698 37.4467 9.27984C37.0076 9.05572 33.7244 8.92867 31.1873 9.03778C28.1171 9.16969 26.8954 9.32416 23.6107 9.99542C22.4289 10.237 21.0206 10.4994 20.4811 10.5786C19.5679 10.7126 19.4327 10.7125 18.5194 10.5778C17.9799 10.4981 16.5806 10.2363 15.4098 9.99594C13.0474 9.51085 11.3629 9.26008 9.60806 9.13208C7.79048 8.99955 5.25315 8.96211 3.52882 9.04248Z" fill="white"/>
</svg>
