<svg width="43" height="24" viewBox="0 0 43 24" fill="none" xmlns="http://www.w3.org/2000/svg">
<path fill-rule="evenodd" clip-rule="evenodd" d="M13.6318 0.164627C11.689 0.680548 10.216 2.1105 9.55267 4.12456C9.35686 4.71905 9.35644 4.73054 9.35644 9.2522C9.35644 13.199 9.34013 13.7911 9.23038 13.8395C9.04079 13.9229 6.47027 14.0727 5.32255 14.0673C4.17894 14.0618 3.66151 13.9471 1.95475 13.3203C1.3769 13.1082 0.779126 12.9346 0.626258 12.9346C0.251946 12.9346 0.054874 13.1751 0.00587905 13.6916C-0.190773 15.7652 4.57392 19.5812 10.1078 21.782C17.9565 24.9035 26.6196 24.7252 34.5625 21.2788C38.7311 19.4702 42.1297 16.7559 42.865 14.6484C43.0739 14.0495 43.0355 13.2037 42.7837 12.8606C42.5128 12.4915 42.2344 12.528 40.7267 13.1307C38.8845 13.8671 38.4016 13.9841 37.2155 13.9819C35.3285 13.9782 34.0612 13.9508 33.8539 13.9091L33.6438 13.8668V9.29365C33.6438 4.72858 33.6435 4.71939 33.4476 4.12456C32.7787 2.09365 31.3019 0.669993 29.3355 0.160626C28.3099 -0.105038 28.0917 -0.0738833 26.9315 0.503411C23.6308 2.146 20.7908 2.40639 17.8072 1.34007C17.0722 1.07738 16.0061 0.565039 15.4354 0.200123C15.0409 -0.0520918 14.4889 -0.062988 13.6318 0.164627ZM11.0208 13.7238C12.1513 14.517 14.388 15.1698 17.2561 15.5433C18.918 15.7597 23.0518 15.7618 24.7777 15.547C27.6798 15.1859 30.0554 14.503 31.2109 13.6978L31.5752 13.4439L31.8047 13.7487C32.074 14.1062 32.172 14.8248 32.0066 15.2293C31.7465 15.8652 30.5279 16.6647 29.1057 17.1324C26.8053 17.8889 24.3586 18.2201 21.0379 18.2244C18.1178 18.2283 16.0021 17.9845 13.8131 17.3919C10.9981 16.6298 9.53477 15.4361 10.0092 14.2891C10.1741 13.8903 10.5688 13.4323 10.6877 13.5016C10.7413 13.5329 10.8912 13.6328 11.0208 13.7238Z" fill="#252525"/>
</svg>
