<svg width="36" height="29" viewBox="0 0 36 29" fill="none" xmlns="http://www.w3.org/2000/svg">
<g clip-path="url(#clip0_717_2)">
<path d="M11.6359 13.8854C9.61764 14.4773 8.2637 16.219 8.39982 18.0825C9.04107 17.3621 10.0204 16.7401 11.2067 16.3312L11.6359 13.8854V13.8854ZM5.38932 16.709L3.60451 6.54143C3.5882 6.44967 3.62026 6.39303 3.61801 6.39133C6.86701 4.57543 10.5435 3.61537 14.2498 3.61537C14.3404 3.61537 14.4315 3.625 14.5226 3.62613C15.3073 2.86318 16.3074 2.33303 17.4246 2.15348C18.4871 1.98242 19.5649 1.89576 20.6409 1.85215C20.079 1.06201 19.2639 0.479746 18.2914 0.322852C16.9464 0.107051 15.5948 0 14.2493 0C9.93714 0 5.68239 1.09996 1.86751 3.23191C0.50795 3.99203 -0.220487 5.57797 0.0590753 7.16957L1.84389 17.3371C2.64432 21.8978 9.51245 25.3846 13.3442 25.3846C13.5461 25.3846 13.7239 25.3586 13.9073 25.3393C13.1468 24.3719 12.2794 23.0465 11.6854 21.5115C9.00732 20.7763 5.71951 18.5878 5.38932 16.709V16.709ZM10.8765 8.92316C10.8354 8.6898 10.7511 8.4774 10.6476 8.27746C10.1835 8.78213 9.48489 9.16955 8.66082 9.31512C7.83676 9.46125 7.04814 9.33777 6.44007 9.02228C6.41082 9.24545 6.40407 9.47428 6.44514 9.70764C6.66114 10.9367 7.82776 11.7575 9.05176 11.5411C10.2752 11.3247 11.0925 10.1523 10.8765 8.92316V8.92316ZM34.1325 6.84785C29.1274 4.05094 23.3646 3.02971 17.7086 3.93936C16.1724 4.18631 14.9479 5.42674 14.6689 7.01834L12.8841 17.1859C12.0184 22.1165 18.2436 28.3028 21.789 28.9303C25.3344 29.5585 33.2904 25.8836 34.1561 20.9531L35.9409 10.7855C36.2205 9.19334 35.4921 7.6074 34.1325 6.84785V6.84785ZM18.7628 12.3307C18.9788 11.1016 20.1454 10.2808 21.3694 10.4978C22.5934 10.7147 23.4101 11.8866 23.1947 13.1157C23.1536 13.3491 23.0693 13.5615 22.9658 13.7614C22.5017 13.2567 21.8031 12.8693 20.979 12.7237C20.1549 12.5776 19.3663 12.7011 18.7583 13.0166C18.7284 12.7929 18.7217 12.564 18.7628 12.3307ZM22.7267 23.5886C19.5947 23.034 17.4662 20.2315 17.7182 17.1938C18.8769 18.6404 20.88 19.8089 23.3145 20.24C25.749 20.671 28.0294 20.2609 29.6106 19.2997C28.8129 22.2416 25.8581 24.1431 22.7267 23.5886V23.5886ZM30.0561 15.0166C29.592 14.5119 28.8928 14.1245 28.0688 13.9789C27.2447 13.8328 26.4561 13.9563 25.848 14.2717C25.8188 14.0486 25.812 13.8197 25.8531 13.5864C26.0691 12.3573 27.2357 11.5366 28.4597 11.7529C29.6831 11.9699 30.5004 13.1418 30.285 14.3709C30.2439 14.6048 30.1596 14.8172 30.0561 15.0166Z" fill="white"/>
</g>
<defs>
<clipPath id="clip0_717_2">
<rect width="36" height="29" fill="white"/>
</clipPath>
</defs>
</svg>
