<svg width="36" height="36" viewBox="0 0 36 36" fill="none" xmlns="http://www.w3.org/2000/svg">
<path d="M22.7999 16.8C21.6879 16.1285 20.6324 15.3676 19.6439 14.5248L14.4239 7.7304C14.2617 7.51607 14.0388 7.35549 13.7842 7.26954C13.5295 7.18359 13.2549 7.17626 12.996 7.24848C12.7372 7.32071 12.506 7.46916 12.3326 7.67453C12.1593 7.87989 12.0517 8.13268 12.0239 8.4H11.9999V12H7.7015C7.54226 12.0006 7.3845 11.9695 7.2374 11.9085C7.0903 11.8475 6.95681 11.7579 6.8447 11.6448C6.8447 11.6448 5.9999 9.6 4.7999 9.6H3.5999C3.28164 9.6 2.97642 9.72643 2.75137 9.95147C2.52633 10.1765 2.3999 10.4817 2.3999 10.8V21.6H15.5999C19.1999 21.6 20.3999 24 23.9999 24H33.5999V22.8C33.5999 19.2 25.3127 18.2256 22.7999 16.8ZM22.7999 26.4C21.5071 26.3635 20.2456 25.994 19.1375 25.3272C17.6962 24.4908 16.066 24.0341 14.3999 24H2.3999V27.6C2.3999 27.9183 2.52633 28.2235 2.75137 28.4485C2.97642 28.6736 3.28164 28.8 3.5999 28.8H13.1999C13.5182 28.8 13.8234 28.6736 14.0484 28.4485C14.2735 28.2235 14.3999 27.9183 14.3999 27.6V26.4C15.6926 26.4368 16.954 26.8063 18.0623 27.4728C19.5036 28.3092 21.1338 28.7659 22.7999 28.8H32.3999C32.7182 28.8 33.0234 28.6736 33.2484 28.4485C33.4735 28.2235 33.5999 27.9183 33.5999 27.6V26.4H22.7999Z" fill="white"/>
</svg>
