<svg width="28" height="24" viewBox="0 0 28 24" fill="none" xmlns="http://www.w3.org/2000/svg">
<path fill-rule="evenodd" clip-rule="evenodd" d="M6.90827 0.139437C6.63181 0.21307 6.1889 0.377916 5.92408 0.505803C4.87886 1.01042 4.7817 1.09437 2.31112 3.62772L0 5.99763L2.31091 8.3791C3.5819 9.6889 4.64609 10.7606 4.67583 10.7606C4.70553 10.7606 4.98243 10.5012 5.29121 10.1841L5.85261 9.60766V16.8038V24H14H22.1474V16.8038V9.60766L22.7088 10.1841C23.0176 10.5012 23.2945 10.7606 23.3242 10.7606C23.3539 10.7606 24.4181 9.6889 25.6891 8.3791L28 5.99763L25.6889 3.62772C23.2185 1.09465 23.121 1.01037 22.0766 0.506085C21.8121 0.378423 21.3599 0.212282 21.0717 0.136958C20.594 0.0121127 20.4397 0 19.3268 0H18.106L18.0804 0.183099C17.9357 1.2187 17.7657 1.73921 17.3809 2.32535C15.954 4.4987 12.9589 4.80732 11.1388 2.96856C10.4242 2.24648 10.1066 1.5209 9.91958 0.183099L9.89399 0L8.65252 0.00276055C7.52819 0.00529576 7.36354 0.0181971 6.90827 0.139437Z" fill="white"/>
</svg>
