<svg width="24" height="30" viewBox="0 0 24 30" fill="none" xmlns="http://www.w3.org/2000/svg">
<path fill-rule="evenodd" clip-rule="evenodd" d="M9.41473 0.541992C9.58133 0.840117 10.2203 2.02658 10.8347 3.17871C11.4491 4.33078 11.9735 5.27344 12 5.27344C12.0265 5.27344 12.5509 4.33078 13.1653 3.17871C13.7797 2.02658 14.4187 0.840117 14.5853 0.541992L14.8881 0H12H9.11186L9.41473 0.541992ZM7.01302 1.94824C6.19139 3.29525 6.3859 3.14355 5.4352 3.179C4.47973 3.21469 3.81845 3.37652 3.03569 3.76629C1.48941 4.53621 0.368694 5.99824 0.0643469 7.64262C0.0218571 7.87225 0 10.2837 0 14.7471V21.5039H1.5C2.65898 21.5039 3.00006 21.4873 3.00037 21.4307C3.00061 21.3904 3.05535 20.3687 3.12202 19.1602C3.21778 17.4255 3.24349 16.1641 3.2441 13.1689L3.2449 9.375H4.16327H5.08163V13.1471C5.08163 16.9175 5.08145 16.9223 4.74496 23.2106C4.55982 26.6709 4.40829 29.614 4.40822 29.751L4.40816 30H7.7449H11.0816V18.7449V7.48975L9.35516 4.27225C8.40563 2.5026 7.61284 1.05469 7.59337 1.05469C7.57396 1.05469 7.31284 1.45682 7.01302 1.94824ZM14.645 4.27084L12.9184 7.48705V18.7435V30H16.2551H19.5918L19.5918 29.751C19.5917 29.614 19.4402 26.6709 19.255 23.2106C18.9186 16.9223 18.9184 16.9175 18.9184 13.1471V9.375H19.8367H20.7551L20.7559 13.1689C20.7565 16.1641 20.7822 17.4255 20.878 19.1602C20.9447 20.3687 20.9994 21.3904 20.9996 21.4307C20.9999 21.4873 21.341 21.5039 22.5 21.5039H24V14.7471C24 10.2837 23.9781 7.87225 23.9357 7.64262C23.6327 6.00568 22.5313 4.55883 21 3.78598C20.206 3.38531 19.5378 3.21791 18.5521 3.17268L17.7266 3.13477L17.0827 2.09473C16.7286 1.52273 16.4237 1.05475 16.4052 1.05469C16.3867 1.05469 15.5947 2.50195 14.645 4.27084ZM16.7143 13.3594V14.2383H15.7959H14.8776V13.3594V12.4805H15.7959H16.7143V13.3594ZM16.7143 17.168V18.0469H15.7959H14.8776V17.168V16.2891H15.7959H16.7143V17.168ZM16.7143 20.9766V21.8555H15.7959H14.8776V20.9766V20.0977H15.7959H16.7143V20.9766Z" fill="white"/>
</svg>
