<svg width="259" height="187" viewBox="0 0 259 187" fill="none" xmlns="http://www.w3.org/2000/svg">
<path d="M0 0H259V187L240.75 180.902L222.5 187L203.5 180.902L186 187L172 180.902L155.5 187L141.938 180.902L129.5 187L113.312 180.902L97.125 187L80.9375 180.902L64.75 187L48.5625 180.902L32.375 187L16.1875 180.902L0 187V0Z" fill="white" fill-opacity="0.05"/>
<path d="M16.0112 180.434L0.5 186.277V0.5H258.5V186.306L240.908 180.428L240.75 180.375L240.592 180.428L222.497 186.474L203.653 180.426L203.493 180.375L203.335 180.43L186.02 186.463L172.2 180.444L172.015 180.363L171.827 180.433L155.519 186.46L142.143 180.446L141.928 180.35L141.717 180.453L129.474 186.456L113.489 180.434L113.312 180.368L113.136 180.434L97.125 186.466L81.1138 180.434L80.9375 180.368L80.7612 180.434L64.75 186.466L48.7388 180.434L48.5625 180.368L48.3862 180.434L32.375 186.466L16.3638 180.434L16.1875 180.368L16.0112 180.434Z" stroke="white" stroke-opacity="0.15"/>
</svg>
